<svg id="Component_26_1" data-name="Component 26 – 1" xmlns="http://www.w3.org/2000/svg" width="25.887" height="44.485" viewBox="0 0 25.887 44.485">
  <path id="Path_132" data-name="Path 132" d="M10.41,22.159V7.712a6.144,6.144,0,0,1,2.518-4.96L16.459.16V14.419a6.425,6.425,0,0,1-2.517,5.072Z" transform="translate(-0.416 -0.16)" fill="#0f5d7f"/>
  <path id="Path_133" data-name="Path 133" d="M10.41,34.129V19.682a6.144,6.144,0,0,1,2.518-4.96l3.531-2.592V26.389a6.387,6.387,0,0,1-2.517,5.072Z" transform="translate(-0.416 10.356)" fill="#0f5d7f"/>
  <path id="Path_134" data-name="Path 134" d="M15.7,34.613V11.073a6.181,6.181,0,0,1,2.442-4.96L21.655,3.54V26.948a6.331,6.331,0,0,1-2.517,5.072Z" transform="translate(4.232 2.809)" fill="#0f5d7f"/>
  <path id="Path_135" data-name="Path 135" d="M5.09,34.933V11.412A6.218,6.218,0,0,1,7.607,6.434L11.12,3.86V27.212A6.331,6.331,0,0,1,8.678,32.3Z" transform="translate(-5.09 3.09)" fill="#0f5d7f"/>
</svg>
