<svg xmlns="http://www.w3.org/2000/svg" width="8.978" height="8.978" viewBox="0 0 8.978 8.978">
  <g id="Group_45" data-name="Group 45" transform="translate(-57 -278)">
    <g id="vuesax_outline_arrow-bottom" data-name="vuesax/outline/arrow-bottom" transform="translate(57 278)">
      <g id="arrow-bottom" transform="translate(0 0)">
        <path id="Vector" d="M2.673,5.05A1.632,1.632,0,0,1,1.3,4.1l-1-1.732A1.622,1.622,0,0,1,.17.714,1.634,1.634,0,0,1,1.674,0h2a1.634,1.634,0,0,1,1.5.714,1.637,1.637,0,0,1-.135,1.661l-1,1.732A1.635,1.635,0,0,1,2.673,5.05Zm-1-4.489A1.1,1.1,0,0,0,.657,1a1.1,1.1,0,0,0,.131,1.1l1,1.732a1.105,1.105,0,0,0,.883.666,1.105,1.105,0,0,0,.883-.666l1-1.732a1.115,1.115,0,0,0,.135-1.1A1.106,1.106,0,0,0,3.668.557H1.674Z" transform="translate(1.816 1.964)" fill="#707070"/>
        <path id="Vector-2" data-name="Vector" d="M0,0H8.978V8.978H0Z" fill="none" opacity="0"/>
      </g>
    </g>
    <path id="Path_4" data-name="Path 4" d="M.857,0c.93,0,2.4-.02,2.4,1.013S2.01,4.441,1.081,4.441s-2.4-2.264-2.4-3.3S-.073,0,.857,0Z" transform="translate(60.445 280.244)" fill="#707070"/>
  </g>
</svg>
