<svg xmlns="http://www.w3.org/2000/svg" width="18.104" height="15.56" viewBox="0 0 18.104 15.56">
  <g id="Group_200" data-name="Group 200" transform="translate(1.104)">
    <text id="مدیریت_منشی_ها" data-name="مدیریت منشی ها" transform="translate(6.895 11.236)" fill="#707070" font-size="1" font-family="IRANYekan" opacity="0"><tspan x="-7.42" y="0">مدیریت منشی ها</tspan></text>
    <g id="vuesax_outline_user-edit" data-name="vuesax/outline/user-edit" transform="translate(1.44)">
      <g id="user-edit">
        <path id="Vector" d="M3.728,7.456A3.728,3.728,0,1,1,7.456,3.728,3.733,3.733,0,0,1,3.728,7.456Zm0-6.483A2.755,2.755,0,1,0,6.483,3.728,2.761,2.761,0,0,0,3.728.973Z" transform="translate(4.052 0.81)" fill="#707070"/>
        <path id="Vector-2" data-name="Vector" d="M.906,5.4a.911.911,0,0,1-.648-.259.922.922,0,0,1-.246-.8l.123-.875a1.309,1.309,0,0,1,.331-.661l2.3-2.3a1.367,1.367,0,0,1,2.127,0A1.525,1.525,0,0,1,5.4,1.575a1.486,1.486,0,0,1-.512,1.057l-2.3,2.3a1.284,1.284,0,0,1-.661.331l-.875.123A.589.589,0,0,1,.906,5.4ZM3.817.972c-.117,0-.22.078-.37.227l-2.3,2.3A.247.247,0,0,0,1.1,3.6l-.117.81.81-.117A.36.36,0,0,0,1.9,4.24l2.3-2.3a.673.673,0,0,0,.227-.37A.614.614,0,0,0,4.2,1.2C4.044,1.043,3.927.972,3.817.972Z" transform="translate(9.351 9.349)" fill="#707070"/>
        <path id="Vector-3" data-name="Vector" d="M1.924,2.41a.418.418,0,0,1-.13-.019A2.579,2.579,0,0,1,.018.614.484.484,0,0,1,.951.355a1.6,1.6,0,0,0,1.1,1.1.486.486,0,0,1-.13.953Z" transform="translate(11.639 10.051)" fill="#707070"/>
        <path id="Vector-4" data-name="Vector" d="M.486,5.511A.49.49,0,0,1,0,5.025C0,2.256,2.717,0,6.055,0A7.272,7.272,0,0,1,8.117.3a.484.484,0,1,1-.279.927A6.274,6.274,0,0,0,6.055.966C3.255.966.973,2.781.973,5.018A.491.491,0,0,1,.486,5.511Z" transform="translate(1.725 9.239)" fill="#707070"/>
        <path id="Vector-5" data-name="Vector" d="M0,0H15.56V15.56H0Z" fill="none" opacity="0"/>
      </g>
    </g>
  </g>
</svg>
