<svg xmlns="http://www.w3.org/2000/svg" width="14.512" height="16" viewBox="0 0 14.512 16">
  <g id="Group_212" data-name="Group 212" transform="translate(-321.651 -84)">
    <path id="Vector" d="M10.233,16H4.279A3.9,3.9,0,0,1,0,11.721V4.279A3.9,3.9,0,0,1,4.279,0h5.953a3.9,3.9,0,0,1,4.279,4.279v7.442A3.9,3.9,0,0,1,10.233,16ZM4.279,1.116c-2.128,0-3.163,1.034-3.163,3.163v7.442c0,2.128,1.034,3.163,3.163,3.163h5.953c2.128,0,3.163-1.034,3.163-3.163V4.279c0-2.128-1.034-3.163-3.163-3.163Z" transform="translate(321.651 84)" fill="#707070"/>
    <path id="Vector-2" data-name="Vector" d="M3.29,3.81H1.9A1.9,1.9,0,0,1,0,1.9V.519A.523.523,0,0,1,.519,0a.523.523,0,0,1,.519.519V1.9a.866.866,0,0,0,.866.866H3.29a.519.519,0,1,1,0,1.039Z" transform="translate(330.44 85.956)" fill="#707070"/>
    <path id="Vector-3" data-name="Vector" d="M3.29,1.039H.519A.523.523,0,0,1,0,.519.523.523,0,0,1,.519,0H3.29A.523.523,0,0,1,3.81.519.523.523,0,0,1,3.29,1.039Z" transform="translate(325.549 92.222)" fill="#707070"/>
    <path id="Vector-4" data-name="Vector" d="M6.061,1.039H.519A.523.523,0,0,1,0,.519.523.523,0,0,1,.519,0H6.061A.523.523,0,0,1,6.58.519.523.523,0,0,1,6.061,1.039Z" transform="translate(325.668 95.19)" fill="#707070"/>
  </g>
</svg>
