<svg xmlns="http://www.w3.org/2000/svg" width="97.111" height="94.792" viewBox="0 0 97.111 94.792">
  <g id="Group_211" data-name="Group 211" transform="translate(-0.001 -0.004)">
    <path id="Path_8" data-name="Path 8" d="M371.107,179.2H344.94a2.252,2.252,0,0,0-2.249,2.249V239.61l-.3.091-6.419,1.966a1.2,1.2,0,0,1-1.5-.8L315.379,178.5a1.2,1.2,0,0,1,.8-1.5l9.892-3.029,28.677-8.778,9.892-3.029a1.2,1.2,0,0,1,1.5.795l4.881,15.942Z" transform="translate(-309.456 -157.882)" fill="#f2f2f2"/>
    <path id="Path_9" data-name="Path 9" d="M343.543,154.935l-5.882-19.214a2.548,2.548,0,0,0-3.183-1.691l-13.908,4.257-28.676,8.779-13.908,4.258a2.551,2.551,0,0,0-1.691,3.183l20.1,65.666a2.553,2.553,0,0,0,2.438,1.8,2.517,2.517,0,0,0,.745-.112l9.534-2.918.3-.093v-.313l-.3.091-9.622,2.946a2.251,2.251,0,0,1-2.808-1.492l-20.1-65.668a2.246,2.246,0,0,1,1.492-2.809l13.908-4.258,28.676-8.778,13.908-4.258a2.247,2.247,0,0,1,2.809,1.492l5.855,19.127.093.3h.312Z" transform="translate(-276.182 -133.913)" fill="#e01e5a"/>
    <path id="Path_10" data-name="Path 10" d="M380.257,164.881a1.352,1.352,0,0,1-1.291-.955l-1.931-6.309a1.349,1.349,0,0,1,.9-1.685l26.382-8.077a1.351,1.351,0,0,1,1.686.9l1.931,6.309a1.351,1.351,0,0,1-.9,1.686l-26.382,8.077A1.346,1.346,0,0,1,380.257,164.881Z" transform="translate(-361.86 -145.712)" fill="#0f5d7f"/>
    <circle id="Ellipse_18" data-name="Ellipse 18" cx="2.999" cy="2.999" r="2.999" transform="translate(25.515 0.746)" fill="#6c63ff"/>
    <circle id="Ellipse_19" data-name="Ellipse 19" cx="1.899" cy="1.899" r="1.899" transform="translate(26.615 1.846)" fill="#fff"/>
    <path id="Path_11" data-name="Path 11" d="M584.275,357.365H533.593a1.276,1.276,0,0,1-1.275-1.275V295.362a1.276,1.276,0,0,1,1.275-1.275h50.682a1.276,1.276,0,0,1,1.275,1.275V356.09A1.276,1.276,0,0,1,584.275,357.365Z" transform="translate(-493.91 -270.066)" fill="#e6e6e6"/>
    <path id="Path_12" data-name="Path 12" d="M529.931,274.087H498.367a2.553,2.553,0,0,0-2.549,2.549v61.148l.3-.091V276.636a2.252,2.252,0,0,1,2.249-2.249h31.657Zm27.515,0H498.367a2.553,2.553,0,0,0-2.549,2.549v68.676a2.553,2.553,0,0,0,2.549,2.549h59.079A2.553,2.553,0,0,0,560,345.312V276.636A2.553,2.553,0,0,0,557.446,274.087Zm2.249,71.225a2.252,2.252,0,0,1-2.249,2.249H498.367a2.252,2.252,0,0,1-2.249-2.249V276.636a2.252,2.252,0,0,1,2.249-2.249h59.079a2.252,2.252,0,0,1,2.249,2.249Z" transform="translate(-462.883 -253.065)" fill="#ce4847"/>
    <path id="Path_13" data-name="Path 13" d="M637.758,265.384h-27.59a1.351,1.351,0,0,1-1.35-1.35v-6.6a1.351,1.351,0,0,1,1.349-1.35h27.59a1.351,1.351,0,0,1,1.35,1.35v6.6A1.351,1.351,0,0,1,637.758,265.384Z" transform="translate(-558.939 -237.764)" fill="#0f5d7f"/>
    <circle id="Ellipse_20" data-name="Ellipse 20" cx="2.999" cy="2.999" r="2.999" transform="translate(62.024 12.775)" fill="#6c63ff"/>
    <circle id="Ellipse_21" data-name="Ellipse 21" cx="1.827" cy="1.827" r="1.827" transform="translate(63.197 13.947)" fill="#fff"/>
  </g>
</svg>
