<svg xmlns="http://www.w3.org/2000/svg" width="20" height="17.371" viewBox="0 0 20 17.371">
  <g id="Group_199" data-name="Group 199" transform="translate(1)">
    <text id="مدیریت_اعلان_ها" data-name="مدیریت اعلان ها" transform="translate(7 11.686)" fill="#707070" font-size="1" font-family="IRANYekan" opacity="0"><tspan x="-7.057" y="0">مدیریت اعلان ها</tspan></text>
    <g id="vuesax_outline_notification" data-name="vuesax/outline/notification" transform="translate(1.629)">
      <g id="notification">
        <path id="Vector" d="M6.365,13.289a15.688,15.688,0,0,1-4.973-.8A2.014,2.014,0,0,1,.118,11.291a1.955,1.955,0,0,1,.2-1.723l.832-1.382a2.93,2.93,0,0,0,.333-1.209V4.886a4.886,4.886,0,0,1,9.771,0V6.978a3.025,3.025,0,0,0,.333,1.216l.825,1.375a2,2,0,0,1,.159,1.723,1.969,1.969,0,0,1-1.238,1.194A15.611,15.611,0,0,1,6.365,13.289Zm0-12.2a3.8,3.8,0,0,0-3.8,3.8V6.978A4.082,4.082,0,0,1,2.08,8.744l-.832,1.382a.9.9,0,0,0-.109.789.916.916,0,0,0,.6.536,14.476,14.476,0,0,0,9.258,0,.884.884,0,0,0,.557-.543.9.9,0,0,0-.072-.782L10.65,8.744a4.068,4.068,0,0,1-.485-1.773V4.886A3.8,3.8,0,0,0,6.365,1.086Z" transform="translate(2.336 1.571)" fill="#707070"/>
        <path id="Vector-2" data-name="Vector" d="M3.224,2a.551.551,0,0,1-.152-.022,5.1,5.1,0,0,0-.608-.13A4.232,4.232,0,0,0,.7,1.976.539.539,0,0,1,.04,1.259,1.972,1.972,0,0,1,1.885,0,1.961,1.961,0,0,1,3.731,1.259a.552.552,0,0,1-.1.565A.559.559,0,0,1,3.224,2Z" transform="translate(6.822 0.854)" fill="#707070"/>
        <path id="Vector-3" data-name="Vector" d="M2.714,2.714A2.724,2.724,0,0,1,.8,1.918,2.724,2.724,0,0,1,0,0H1.086a1.64,1.64,0,0,0,.478,1.151,1.64,1.64,0,0,0,1.151.478A1.631,1.631,0,0,0,4.343,0H5.429A2.715,2.715,0,0,1,2.714,2.714Z" transform="translate(5.986 13.796)" fill="#707070"/>
        <path id="Vector-4" data-name="Vector" d="M0,0H17.371V17.371H0Z" fill="none" opacity="0"/>
      </g>
    </g>
  </g>
</svg>
