<svg xmlns="http://www.w3.org/2000/svg" width="24" height="24" viewBox="0 0 24 24">
  <g id="Group_174" data-name="Group 174" transform="translate(-320 -20)">
    <g id="vuesax_outline_menu" data-name="vuesax/outline/menu" transform="translate(-364 -360)">
      <g id="menu">
        <path id="Vector" d="M18.75,1.5H.75A.755.755,0,0,1,0,.75.755.755,0,0,1,.75,0h18a.755.755,0,0,1,.75.75A.755.755,0,0,1,18.75,1.5Z" transform="translate(686.25 386.25)" fill="#292d32"/>
        <path id="Vector-2" data-name="Vector" d="M18.75,1.5H.75A.755.755,0,0,1,0,.75.755.755,0,0,1,.75,0h18a.755.755,0,0,1,.75.75A.755.755,0,0,1,18.75,1.5Z" transform="translate(686.25 391.25)" fill="#292d32"/>
        <path id="Vector-3" data-name="Vector" d="M18.75,1.5H.75A.755.755,0,0,1,0,.75.755.755,0,0,1,.75,0h18a.755.755,0,0,1,.75.75A.755.755,0,0,1,18.75,1.5Z" transform="translate(686.25 396.25)" fill="#292d32"/>
        <path id="Vector-4" data-name="Vector" d="M0,0H24V24H0Z" transform="translate(684 380)" fill="none" opacity="0"/>
      </g>
    </g>
  </g>
</svg>
