<svg xmlns="http://www.w3.org/2000/svg" width="19" height="17.371" viewBox="0 0 19 17.371">
  <g id="Group_201" data-name="Group 201" transform="translate(-11)">
    <text id="اخبار" transform="translate(13 12.686)" fill="#0f5d7f" font-size="1" font-family="IRANYekan" opacity="0"><tspan x="-1.926" y="0">اخبار</tspan></text>
    <g id="vuesax_outline_book" data-name="vuesax/outline/book" transform="translate(12.629)">
      <g id="book">
        <path id="Vector" d="M7.781,14.593a1.27,1.27,0,0,1-.615-.152A18.155,18.155,0,0,0,1.94,12.726L1.73,12.7A2.039,2.039,0,0,1,0,10.728V1.984A1.963,1.963,0,0,1,2.15.008,13.982,13.982,0,0,1,7.506,1.782l.174.1a.281.281,0,0,0,.2.007L8,1.818a14.27,14.27,0,0,1,5.363-1.8h.087A1.919,1.919,0,0,1,14.925.53,1.959,1.959,0,0,1,15.562,2v8.736A2.033,2.033,0,0,1,13.825,12.7l-.239.029a17.952,17.952,0,0,0-5.2,1.715A1.191,1.191,0,0,1,7.781,14.593ZM1.976,1.087a.885.885,0,0,0-.608.232.9.9,0,0,0-.282.666v8.744a.957.957,0,0,0,.782.9l.217.029a19.226,19.226,0,0,1,5.573,1.824.325.325,0,0,0,.2.022,18.907,18.907,0,0,1,5.6-1.846l.246-.029a.95.95,0,0,0,.782-.9V1.992a.912.912,0,0,0-.282-.673.945.945,0,0,0-.695-.232h-.087A13.3,13.3,0,0,0,8.584,2.715l-.116.08A1.337,1.337,0,0,1,7.122,2.8l-.174-.1A13.328,13.328,0,0,0,2.063,1.087Z" transform="translate(0.905 1.389)" fill="#0f5d7f"/>
        <path id="Vector-2" data-name="Vector" d="M.543,11.943A.547.547,0,0,1,0,11.4V.543A.547.547,0,0,1,.543,0a.547.547,0,0,1,.543.543V11.4A.542.542,0,0,1,.543,11.943Z" transform="translate(8.143 3.431)" fill="#0f5d7f"/>
        <path id="Vector-3" data-name="Vector" d="M2.171,1.086H.543A.547.547,0,0,1,0,.543.547.547,0,0,1,.543,0H2.171a.547.547,0,0,1,.543.543A.547.547,0,0,1,2.171,1.086Z" transform="translate(3.438 5.602)" fill="#0f5d7f"/>
        <path id="Vector-4" data-name="Vector" d="M2.714,1.086H.543A.547.547,0,0,1,0,.543.547.547,0,0,1,.543,0H2.714a.547.547,0,0,1,.543.543A.547.547,0,0,1,2.714,1.086Z" transform="translate(3.438 7.774)" fill="#0f5d7f"/>
        <path id="Vector-5" data-name="Vector" d="M0,0H17.371V17.371H0Z" fill="none" opacity="0"/>
      </g>
    </g>
  </g>
</svg>
