<svg id="vuesax_outline_activity" data-name="vuesax/outline/activity" xmlns="http://www.w3.org/2000/svg" width="14.877" height="14.877" viewBox="0 0 14.877 14.877">
  <g id="activity">
    <path id="Vector" d="M8.523,13.327H4.8c-3.366,0-4.8-1.438-4.8-4.8V4.8C0,1.438,1.438,0,4.8,0H8.523c3.366,0,4.8,1.438,4.8,4.8V8.523C13.327,11.889,11.889,13.327,8.523,13.327ZM4.8.93C1.946.93.93,1.946.93,4.8V8.523C.93,11.381,1.946,12.4,4.8,12.4H8.523c2.858,0,3.874-1.017,3.874-3.874V4.8C12.4,1.946,11.381.93,8.523.93Z" transform="translate(0.775 0.775)" fill="#707070"/>
    <path id="Vector-2" data-name="Vector" d="M.467,4.024a.456.456,0,0,1-.285-.1A.464.464,0,0,1,.1,3.274L1.571,1.359A1.086,1.086,0,0,1,3.1,1.167l1.134.893a.132.132,0,0,0,.118.031.138.138,0,0,0,.105-.062L5.891.181A.458.458,0,0,1,6.542.1a.458.458,0,0,1,.081.651L5.191,2.6a1.058,1.058,0,0,1-.725.409,1.075,1.075,0,0,1-.806-.223L2.525,1.892a.136.136,0,0,0-.118-.031.138.138,0,0,0-.105.062L.827,3.838A.42.42,0,0,1,.467,4.024Z" transform="translate(4.076 5.423)" fill="#707070"/>
    <path id="Vector-3" data-name="Vector" d="M0,0H14.877V14.877H0Z" fill="none" opacity="0"/>
  </g>
</svg>
