<svg xmlns="http://www.w3.org/2000/svg" width="24" height="24" viewBox="0 0 24 24">
  <g id="vuesax_outline_clock" data-name="vuesax/outline/clock" transform="translate(-172 -188)">
    <g id="clock">
      <path id="Vector" d="M10.75,21.5A10.75,10.75,0,1,1,21.5,10.75,10.759,10.759,0,0,1,10.75,21.5Zm0-20A9.25,9.25,0,1,0,20,10.75,9.261,9.261,0,0,0,10.75,1.5Z" transform="translate(173.25 189.25)"/>
      <path id="Vector-2" data-name="Vector" d="M4.82,9.17a.67.67,0,0,1-.38-.11L1.34,7.21A2.949,2.949,0,0,1,0,4.85V.75A.755.755,0,0,1,.75,0,.755.755,0,0,1,1.5.75v4.1a1.478,1.478,0,0,0,.61,1.07l3.1,1.85A.749.749,0,0,1,5.47,8.8.77.77,0,0,1,4.82,9.17Z" transform="translate(182.89 194.76)"/>
      <path id="Vector-3" data-name="Vector" d="M0,0H24V24H0Z" transform="translate(172 188)" fill="none" opacity="0"/>
    </g>
  </g>
</svg>
