<svg xmlns="http://www.w3.org/2000/svg" width="24" height="24" viewBox="0 0 24 24">
  <g id="vuesax_outline_location" data-name="vuesax/outline/location" transform="translate(-428 -188)">
    <g id="location">
      <path id="Vector" d="M3.87,7.73A3.865,3.865,0,1,1,7.74,3.87,3.873,3.873,0,0,1,3.87,7.73Zm0-6.23A2.37,2.37,0,1,0,6.24,3.87,2.375,2.375,0,0,0,3.87,1.5Z" transform="translate(436.13 194.44)" fill="#0f5d7f"/>
      <path id="Vector-2" data-name="Vector" d="M9.377,21.51a5.971,5.971,0,0,1-4.13-1.67C2.3,17-.963,12.47.267,7.08A9.116,9.116,0,0,1,9.377,0h.01A9.115,9.115,0,0,1,18.5,7.09c1.22,5.39-2.04,9.91-4.99,12.75A5.971,5.971,0,0,1,9.377,21.51Zm0-20.01a7.552,7.552,0,0,0-7.64,5.91c-1.08,4.71,1.88,8.77,4.56,11.34a4.426,4.426,0,0,0,6.17,0c2.67-2.57,5.63-6.63,4.57-11.34A7.58,7.58,0,0,0,9.377,1.5Z" transform="translate(430.623 189.25)" fill="#0f5d7f"/>
      <path id="Vector-3" data-name="Vector" d="M0,0H24V24H0Z" transform="translate(428 188)" fill="none" opacity="0"/>
    </g>
  </g>
</svg>
