<svg xmlns="http://www.w3.org/2000/svg" width="24" height="24" viewBox="0 0 24 24">
  <g id="vuesax_outline_receive-square" data-name="vuesax/outline/receive-square" transform="translate(-748 -380)">
    <g id="receive-square">
      <path id="Vector" d="M3.747,4.5a.742.742,0,0,1-.53-.22l-3-3A.75.75,0,0,1,1.277.218l2.47,2.47L6.218.218a.75.75,0,0,1,1.06,1.06l-3,3A.742.742,0,0,1,3.747,4.5Z" transform="translate(756.252 390.763)" fill="#0f5d7f"/>
      <path id="Vector-2" data-name="Vector" d="M.75,9.5A.755.755,0,0,1,0,8.75v-8A.755.755,0,0,1,.75,0,.755.755,0,0,1,1.5.75v8A.749.749,0,0,1,.75,9.5Z" transform="translate(759.25 385.76)" fill="#0f5d7f"/>
      <path id="Vector-3" data-name="Vector" d="M6.748,2.472a19.79,19.79,0,0,1-6.24-1.01.753.753,0,0,1-.47-.95.741.741,0,0,1,.95-.47,18.333,18.333,0,0,0,11.53,0A.749.749,0,1,1,13,1.462,19.615,19.615,0,0,1,6.748,2.472Z" transform="translate(753.251 395.758)" fill="#0f5d7f"/>
      <path id="Vector-4" data-name="Vector" d="M0,0H24V24H0Z" transform="translate(748 380)" fill="none" opacity="0"/>
    </g>
  </g>
</svg>
