<svg xmlns="http://www.w3.org/2000/svg" width="23.588" height="23.588" viewBox="0 0 23.588 23.588">
  <g id="vuesax_outline_import" data-name="vuesax/outline/import" transform="translate(-900 -444)">
    <g id="import" transform="translate(900 444)">
      <path id="Vector" d="M13.3,13.85H6.89C2.064,13.85,0,11.786,0,6.96V6.833C0,2.469,1.72.366,5.573,0A.759.759,0,0,1,6.379.67a.739.739,0,0,1-.668.806c-3.086.285-4.236,1.74-4.236,5.366V6.97c0,4,1.415,5.415,5.415,5.415H13.3c4,0,5.415-1.415,5.415-5.415V6.843c0-3.646-1.17-5.1-4.315-5.366A.735.735,0,0,1,14.526.012c3.912.334,5.661,2.447,5.661,6.841V6.98C20.187,11.786,18.123,13.85,13.3,13.85Z" transform="translate(1.7 8.018)" fill="#707070"/>
      <path id="Vector-2" data-name="Vector" d="M.737,14.133A.742.742,0,0,1,0,13.4V.737A.742.742,0,0,1,.737,0a.742.742,0,0,1,.737.737V13.4A.736.736,0,0,1,.737,14.133Z" transform="translate(11.057 1.229)" fill="#707070"/>
      <path id="Vector-3" data-name="Vector" d="M4.027,4.764a.729.729,0,0,1-.521-.216L.214,1.256A.737.737,0,0,1,1.256.214L4.027,2.985,6.8.214A.737.737,0,0,1,7.841,1.256L4.548,4.548A.729.729,0,0,1,4.027,4.764Z" transform="translate(7.767 11.698)" fill="#707070"/>
      <path id="Vector-4" data-name="Vector" d="M0,0H23.588V23.588H0Z" fill="none" opacity="0"/>
    </g>
  </g>
</svg>
