<svg id="vuesax_outline_forbidden-2" data-name="vuesax/outline/forbidden-2" xmlns="http://www.w3.org/2000/svg" width="15.338" height="15.338" viewBox="0 0 15.338 15.338">
  <g id="forbidden-2">
    <path id="Vector" d="M8.723,13.74H5.017a2.641,2.641,0,0,1-1.694-.7L.7,10.417A2.669,2.669,0,0,1,0,8.723V5.017A2.641,2.641,0,0,1,.7,3.323L3.323.7A2.669,2.669,0,0,1,5.017,0H8.723a2.641,2.641,0,0,1,1.694.7l2.62,2.62a2.669,2.669,0,0,1,.7,1.694V8.723a2.641,2.641,0,0,1-.7,1.694l-2.62,2.62A2.655,2.655,0,0,1,8.723,13.74ZM5.017.959A1.7,1.7,0,0,0,4,1.38L1.38,4A1.761,1.761,0,0,0,.959,5.017V8.723A1.7,1.7,0,0,0,1.38,9.74L4,12.36a1.761,1.761,0,0,0,1.016.422H8.723A1.7,1.7,0,0,0,9.74,12.36l2.62-2.62a1.761,1.761,0,0,0,.422-1.016V5.017A1.7,1.7,0,0,0,12.36,4L9.74,1.38A1.761,1.761,0,0,0,8.723.959Z" transform="translate(0.799 0.799)" fill="red"/>
    <path id="Vector-2" data-name="Vector" d="M.478,5.431A.474.474,0,0,1,.139,5.29a.482.482,0,0,1,0-.677L4.613.139A.479.479,0,0,1,5.29.816L.816,5.29A.474.474,0,0,1,.478,5.431Z" transform="translate(4.954 4.954)" fill="red"/>
    <path id="Vector-3" data-name="Vector" d="M4.951,5.431a.474.474,0,0,1-.339-.141L.139.816A.479.479,0,0,1,.816.139L5.29,4.613a.482.482,0,0,1,0,.677A.474.474,0,0,1,4.951,5.431Z" transform="translate(4.954 4.954)" fill="red"/>
    <path id="Vector-4" data-name="Vector" d="M0,0H15.338V15.338H0Z" fill="none" opacity="0"/>
  </g>
</svg>
