<svg xmlns="http://www.w3.org/2000/svg" width="15.448" height="15.448" viewBox="0 0 15.448 15.448">
  <g id="vuesax_outline_trash" data-name="vuesax/outline/trash" transform="translate(-108 -188)" opacity="0.8">
    <g id="trashظ" transform="translate(108 188)">
      <path id="Vector" d="M12.071,1.3H12.02A50.706,50.706,0,0,0,1.85,1.169L.537,1.3A.486.486,0,0,1,0,.86.48.48,0,0,1,.434.332L1.747.2a52.23,52.23,0,0,1,10.37.129.483.483,0,0,1,.431.528A.477.477,0,0,1,12.071,1.3Z" transform="translate(1.446 3.035)" fill="red"/>
      <path id="Vector-2" data-name="Vector" d="M.483,2.877A.4.4,0,0,1,.4,2.871a.485.485,0,0,1-.393-.554l.142-.843C.252.856.393,0,1.893,0H3.579C5.086,0,5.227.888,5.324,1.48l.142.837a.48.48,0,1,1-.946.161l-.142-.837c-.09-.56-.109-.669-.792-.669H1.9c-.682,0-.7.09-.792.663L.96,2.472A.483.483,0,0,1,.483,2.877Z" transform="translate(4.988 0.805)" fill="red"/>
      <path id="Vector-3" data-name="Vector" d="M6.959,9.244H2.827C.581,9.244.49,8,.42,7L0,.516A.487.487,0,0,1,.452,0,.488.488,0,0,1,.967.451l.418,6.482c.071.978.1,1.345,1.442,1.345H6.959c1.352,0,1.377-.367,1.442-1.345L8.82.451A.492.492,0,0,1,9.335,0a.483.483,0,0,1,.451.515L9.367,7C9.3,8,9.206,9.244,6.959,9.244Z" transform="translate(2.831 5.4)" fill="red"/>
      <path id="Vector-4" data-name="Vector" d="M2.626.966H.483A.486.486,0,0,1,0,.483.486.486,0,0,1,.483,0H2.626a.486.486,0,0,1,.483.483A.486.486,0,0,1,2.626.966Z" transform="translate(6.166 10.138)" fill="red"/>
      <path id="Vector-5" data-name="Vector" d="M3.7.966H.483A.486.486,0,0,1,0,.483.486.486,0,0,1,.483,0H3.7a.486.486,0,0,1,.483.483A.486.486,0,0,1,3.7.966Z" transform="translate(5.632 7.563)" fill="red"/>
      <path id="Vector-6" data-name="Vector" d="M0,0H15.448V15.448H0Z" fill="none" opacity="0"/>
    </g>
  </g>
</svg>
